<svg width="48" height="48" viewBox="0 0 48 48" fill="none" xmlns="http://www.w3.org/2000/svg">
<path d="M0 25.125C0.09375 20.5312 1.61719 16.6875 4.57031 13.5938C7.52344 10.4531 11.25 8.69531 15.75 8.32031V26.25L27.6328 38.1328C24.6328 40.6172 21.0469 41.9062 16.875 42C13.7344 41.9531 10.8984 41.1797 8.36719 39.6797C5.83594 38.1797 3.82031 36.1641 2.32031 33.6328C0.820312 31.1016 0.046875 28.2656 0 25.125Z" fill="#575966"/>
<path d="M20.25 26.25H38.25C38.0625 28.6406 37.4297 30.8672 36.3516 32.9297C35.2734 34.9453 33.8672 36.6797 32.1328 38.1328L20.25 26.25Z" fill="#8A8C99"/>
<path d="M19.125 22.875V6.07031C19.5 6.02344 19.875 6 20.25 6C23.2031 6.04688 25.8516 6.77344 28.1953 8.17969C30.5859 9.53906 32.4609 11.4141 33.8203 13.8047C35.2266 16.1484 35.9531 18.7969 36 21.75C36 22.125 35.9766 22.5 35.9297 22.875H19.125Z" fill="#FCD535"/>
</svg>
