<svg width="60" height="60" viewBox="0 0 60 60" fill="none" xmlns="http://www.w3.org/2000/svg">
<path d="M0 13.5C0.0625 12.25 0.5 11.1875 1.3125 10.3125C2.1875 9.5 3.25 9.0625 4.5 9H13.5C14.75 9.0625 15.8125 9.5 16.6875 10.3125C17.5 11.1875 17.9375 12.25 18 13.5V15H36V13.5C36.0625 12.25 36.5 11.1875 37.3125 10.3125C38.1875 9.5 39.25 9.0625 40.5 9H49.5C50.75 9.0625 51.8125 9.5 52.6875 10.3125C53.5 11.1875 53.9375 12.25 54 13.5V22.5C53.9375 23.75 53.5 24.8125 52.6875 25.6875C51.8125 26.5 50.75 26.9375 49.5 27H40.5C39.25 26.9375 38.1875 26.5 37.3125 25.6875C36.5 24.8125 36.0625 23.75 36 22.5V21H18V22.5C18 22.6875 18 22.8438 18 22.9688L25.5 33H34.5C35.75 33.0625 36.8125 33.5 37.6875 34.3125C38.5 35.1875 38.9375 36.25 39 37.5V46.5C38.9375 47.75 38.5 48.8125 37.6875 49.6875C36.8125 50.5 35.75 50.9375 34.5 51H25.5C24.25 50.9375 23.1875 50.5 22.3125 49.6875C21.5 48.8125 21.0625 47.75 21 46.5V37.5C21 37.3125 21 37.1562 21 37.0312L13.5 27H4.5C3.25 26.9375 2.1875 26.5 1.3125 25.6875C0.5 24.8125 0.0625 23.75 0 22.5V13.5Z" fill="#8A8C99"/>
<path d="M0 13.5C0.0625 12.25 0.5 11.1875 1.3125 10.3125C2.1875 9.5 3.25 9.0625 4.5 9H13.5C14.75 9.0625 15.8125 9.5 16.6875 10.3125C17.5 11.1875 17.9375 12.25 18 13.5V22.5C17.9375 23.75 17.5 24.8125 16.6875 25.6875C15.8125 26.5 14.75 26.9375 13.5 27H4.5C3.25 26.9375 2.1875 26.5 1.3125 25.6875C0.5 24.8125 0.0625 23.75 0 22.5V13.5ZM21 37.5C21.0625 36.25 21.5 35.1875 22.3125 34.3125C23.1875 33.5 24.25 33.0625 25.5 33H34.5C35.75 33.0625 36.8125 33.5 37.6875 34.3125C38.5 35.1875 38.9375 36.25 39 37.5V46.5C38.9375 47.75 38.5 48.8125 37.6875 49.6875C36.8125 50.5 35.75 50.9375 34.5 51H25.5C24.25 50.9375 23.1875 50.5 22.3125 49.6875C21.5 48.8125 21.0625 47.75 21 46.5V37.5ZM49.5 9C50.75 9.0625 51.8125 9.5 52.6875 10.3125C53.5 11.1875 53.9375 12.25 54 13.5V22.5C53.9375 23.75 53.5 24.8125 52.6875 25.6875C51.8125 26.5 50.75 26.9375 49.5 27H40.5C39.25 26.9375 38.1875 26.5 37.3125 25.6875C36.5 24.8125 36.0625 23.75 36 22.5V13.5C36.0625 12.25 36.5 11.1875 37.3125 10.3125C38.1875 9.5 39.25 9.0625 40.5 9H49.5Z" fill="#FCD535"/>
</svg>
