<svg width="48" height="48" viewBox="0 0 48 48" fill="none" xmlns="http://www.w3.org/2000/svg">
<path d="M18 9.375C13.875 9.46875 10.4297 10.8984 7.66406 13.6641C4.89844 16.4297 3.46875 19.875 3.375 24V26.8125C3.28125 27.8438 2.71875 28.4062 1.6875 28.5C0.65625 28.4062 0.09375 27.8438 0 26.8125V24C0.046875 20.625 0.867188 17.6016 2.46094 14.9297C4.05469 12.2109 6.21094 10.0547 8.92969 8.46094C11.6016 6.86719 14.625 6.04688 18 6C21.375 6.04688 24.3984 6.86719 27.0703 8.46094C29.7891 10.0547 31.9453 12.2109 33.5391 14.9297C35.1328 17.6016 35.9531 20.625 36 24V34.125C35.9531 35.8594 35.3438 37.3125 34.1719 38.4844C33 39.6562 31.5469 40.2656 29.8125 40.3125H22.0781C21.4219 41.3906 20.4375 41.9531 19.125 42H16.875C15.9375 41.9531 15.1406 41.625 14.4844 41.0156C13.875 40.3594 13.5469 39.5625 13.5 38.625C13.5469 37.6875 13.875 36.8906 14.4844 36.2344C15.1406 35.625 15.9375 35.2969 16.875 35.25H19.125C20.4375 35.2969 21.4219 35.8594 22.0781 36.9375H29.8125C30.6094 36.9375 31.2656 36.6562 31.7812 36.0938C32.3438 35.5781 32.625 34.9219 32.625 34.125V24C32.5312 19.875 31.1016 16.4297 28.3359 13.6641C25.5703 10.8984 22.125 9.46875 18 9.375Z" fill="#8A8C99"/>
<path d="M10.125 20.63H11.25C11.9062 20.63 12.4453 20.8409 12.8672 21.2628C13.2891 21.6847 13.5 22.2238 13.5 22.88V30.755C13.5 31.4113 13.2891 31.9503 12.8672 32.3722C12.4453 32.7941 11.9062 33.005 11.25 33.005H10.125C8.85938 32.9581 7.80469 32.5128 6.96094 31.6691C6.11719 30.8253 5.67188 29.7706 5.625 28.505V25.13C5.67188 23.8644 6.11719 22.8097 6.96094 21.9659C7.80469 21.1222 8.85938 20.6769 10.125 20.63ZM25.875 20.63C27.1406 20.6769 28.1953 21.1222 29.0391 21.9659C29.8828 22.8097 30.3281 23.8644 30.375 25.13V28.505C30.3281 29.7706 29.8828 30.8253 29.0391 31.6691C28.1953 32.5128 27.1406 32.9581 25.875 33.005H24.75C24.0938 33.005 23.5547 32.7941 23.1328 32.3722C22.7109 31.9503 22.5 31.4113 22.5 30.755V22.88C22.5 22.2238 22.7109 21.6847 23.1328 21.2628C23.5547 20.8409 24.0938 20.63 24.75 20.63H25.875Z" fill="#FCD535"/>
</svg>
