<svg width="60" height="60" viewBox="0 0 60 60" fill="none" xmlns="http://www.w3.org/2000/svg">
<path d="M39 25.5C38.9375 29.875 37.6875 33.7188 35.25 37.0312L47.1562 48.8438C47.7188 49.4688 48 50.1875 48 51C48 51.8125 47.7188 52.5312 47.1562 53.1562C46.5312 53.7188 45.8125 54 45 54C44.1875 54 43.4688 53.7188 42.8438 53.1562L31.0312 41.25C27.7188 43.6875 23.875 44.9375 19.5 45C14 44.875 9.40625 42.9688 5.71875 39.2812C2.03125 35.5938 0.125 31 0 25.5C0.125 20 2.03125 15.4062 5.71875 11.7188C9.40625 8.03125 14 6.125 19.5 6C25 6.125 29.5938 8.03125 33.2812 11.7188C36.9688 15.4062 38.875 20 39 25.5ZM9.75 26.25V32.25C9.875 33.625 10.625 34.375 12 34.5C13.375 34.375 14.125 33.625 14.25 32.25V26.25C14.125 24.875 13.375 24.125 12 24C10.625 24.125 9.875 24.875 9.75 26.25ZM17.25 17.25V32.25C17.375 33.625 18.125 34.375 19.5 34.5C20.875 34.375 21.625 33.625 21.75 32.25V17.25C21.625 15.875 20.875 15.125 19.5 15C18.125 15.125 17.375 15.875 17.25 17.25ZM24.75 23.25V32.25C24.875 33.625 25.625 34.375 27 34.5C28.375 34.375 29.125 33.625 29.25 32.25V23.25C29.125 21.875 28.375 21.125 27 21C25.625 21.125 24.875 21.875 24.75 23.25Z" fill="#8A8C99"/>
<path d="M9.75 26.25V32.25C9.875 33.625 10.625 34.375 12 34.5C13.375 34.375 14.125 33.625 14.25 32.25V26.25C14.125 24.875 13.375 24.125 12 24C10.625 24.125 9.875 24.875 9.75 26.25ZM17.25 17.25V32.25C17.375 33.625 18.125 34.375 19.5 34.5C20.875 34.375 21.625 33.625 21.75 32.25V17.25C21.625 15.875 20.875 15.125 19.5 15C18.125 15.125 17.375 15.875 17.25 17.25ZM24.75 23.25V32.25C24.875 33.625 25.625 34.375 27 34.5C28.375 34.375 29.125 33.625 29.25 32.25V23.25C29.125 21.875 28.375 21.125 27 21C25.625 21.125 24.875 21.875 24.75 23.25Z" fill="#FCD535"/>
</svg>
