<svg width="48" height="48" viewBox="0 0 48 48" fill="none" xmlns="http://www.w3.org/2000/svg">
<path d="M34.3125 22.87C35.3438 22.9637 35.9062 23.5262 36 24.5575C35.9062 25.5887 35.3438 26.1512 34.3125 26.245C30.6562 26.3387 27.6094 27.6044 25.1719 30.0419C22.7344 32.4794 21.4688 35.5262 21.375 39.1825C21.2812 40.2137 20.7188 40.7762 19.6875 40.87C18.6562 40.7762 18.0938 40.2137 18 39.1825C18.0469 36.1356 18.7969 33.3934 20.25 30.9559C21.7031 28.5184 23.6484 26.5731 26.0859 25.12C28.5234 23.6669 31.2656 22.9169 34.3125 22.87ZM33.75 36.37C34.4062 36.37 34.9453 36.5809 35.3672 37.0028C35.7891 37.4247 36 37.9637 36 38.62C36 39.2762 35.7891 39.8153 35.3672 40.2372C34.9453 40.6591 34.4062 40.87 33.75 40.87C33.0938 40.87 32.5547 40.6591 32.1328 40.2372C31.7109 39.8153 31.5 39.2762 31.5 38.62C31.5 37.9637 31.7109 37.4247 32.1328 37.0028C32.5547 36.5809 33.0938 36.37 33.75 36.37ZM36 31.3075C35.9062 32.3387 35.3438 32.9012 34.3125 32.995C32.5781 33.0419 31.125 33.6512 29.9531 34.8231C28.7812 35.995 28.1719 37.4481 28.125 39.1825C28.0312 40.2137 27.4688 40.7762 26.4375 40.87C25.4062 40.7762 24.8438 40.2137 24.75 39.1825C24.7969 36.4637 25.7344 34.2137 27.5625 32.4325C29.3438 30.6044 31.5938 29.6669 34.3125 29.62C35.3438 29.7137 35.9062 30.2762 36 31.3075Z" fill="#FCD535"/>
<path d="M25.875 15.5575V22.6591C24.6562 23.2684 23.5312 23.995 22.5 24.8387V16.12H17.4375V19.9169C18.5156 20.5731 19.0781 21.5575 19.125 22.87C19.0781 23.8075 18.75 24.6044 18.1406 25.2606C17.4844 25.87 16.6875 26.1981 15.75 26.245C14.8125 26.1981 14.0156 25.87 13.3594 25.2606C12.75 24.6044 12.4219 23.8075 12.375 22.87C12.4219 21.5575 12.9844 20.5731 14.0625 19.9169V15.5575C14.0625 14.7606 14.3438 14.1044 14.9062 13.5887C15.4219 13.0262 16.0781 12.745 16.875 12.745H23.0625C23.8594 12.745 24.5156 13.0262 25.0312 13.5887C25.5938 14.1044 25.875 14.7606 25.875 15.5575ZM16.8047 32.995H8.4375C7.64062 32.995 6.98438 32.7137 6.46875 32.1512C5.90625 31.6356 5.625 30.9794 5.625 30.1825V15.5575C5.625 14.7606 5.90625 14.1044 6.46875 13.5887C6.98438 13.0262 7.64062 12.745 8.4375 12.745H9.5625C10.5938 12.8387 11.1562 13.4012 11.25 14.4325C11.1562 15.4637 10.5938 16.0262 9.5625 16.12H9V29.62H18.4219C17.7656 30.6981 17.2266 31.8231 16.8047 32.995Z" fill="#8A8C99"/>
<path d="M27 10.495H4.5C3.79688 10.5419 3.42188 10.9169 3.375 11.62V34.12C3.42188 34.8231 3.79688 35.1981 4.5 35.245H16.1719C15.9375 36.3231 15.7969 37.4481 15.75 38.62H4.5C3.23438 38.5731 2.17969 38.1278 1.33594 37.2841C0.492188 36.4403 0.046875 35.3856 0 34.12V11.62C0.046875 10.3544 0.492188 9.29968 1.33594 8.45593C2.17969 7.61218 3.23438 7.16687 4.5 7.12H27C28.2656 7.16687 29.3203 7.61218 30.1641 8.45593C31.0078 9.29968 31.4531 10.3544 31.5 11.62V20.8309C30.3281 21.0184 29.2031 21.2997 28.125 21.6747V11.62C28.0781 10.9169 27.7031 10.5419 27 10.495Z" fill="#575966"/>
</svg>
