<svg width="60" height="60" viewBox="0 0 60 60" fill="none" xmlns="http://www.w3.org/2000/svg">
<path d="M43.2188 9.65615C44.9062 11.4062 46.0938 13.3749 46.7812 15.5624C47.5312 17.7499 47.7188 20.0312 47.3438 22.4062C47.7812 22.6562 48.2188 22.9687 48.6562 23.3437L51.9375 25.9687C53.25 27.0937 53.9375 28.5624 54 30.3749C53.9375 31.9374 53.375 33.2499 52.3125 34.3124C51.25 35.3749 49.9375 35.9374 48.375 35.9999H38.8125L38.25 36.3749L33 39.3749V37.9687C32.9375 35.2187 32.125 32.7812 30.5625 30.6562C29 28.5937 26.9062 27.1562 24.2812 26.3437L21.375 25.5937C20.5 25.4062 19.9062 25.7499 19.5938 26.6249C19.4062 27.4999 19.75 28.0937 20.625 28.4062L23.4375 29.2499C25.4375 29.8749 27.0312 30.9687 28.2188 32.5312C29.4062 34.0937 30 35.9062 30 37.9687V41.9999H39C39.875 41.9999 40.5938 42.2812 41.1562 42.8437C41.7188 43.4062 42 44.1249 42 44.9999C42 45.8749 41.7188 46.5937 41.1562 47.1562C40.5938 47.7187 39.875 47.9999 39 47.9999H28.125C26.625 47.9999 25.2812 47.4687 24.0938 46.4062L10.7812 34.2187C9.46875 32.9687 8.59375 31.5312 8.15625 29.9062C7.28125 30.4687 6.3125 30.7499 5.25 30.7499C3.75 30.6874 2.5 30.1874 1.5 29.2499C0.5625 28.2499 0.0625 26.9999 0 25.4999C0.0625 23.9999 0.5625 22.7499 1.5 21.7499C2.5 20.8124 3.75 20.3124 5.25 20.2499C6.9375 20.3124 8.28125 20.9374 9.28125 22.1249C11.0312 19.4999 13.5 18.1249 16.6875 17.9999C20.0625 17.9999 23.25 18.8437 26.25 20.5312L36.0938 26.1562C36.2188 25.4062 36.4375 24.7187 36.75 24.0937C33.1875 22.2812 30.6562 19.4687 29.1562 15.6562C28.7812 14.4687 29.125 13.4999 30.1875 12.7499C30.75 12.4374 31.3438 12.3749 31.9688 12.5624L32.25 12.6562C34.5 13.2187 36.4688 14.2187 38.1562 15.6562C39.8438 17.1562 41.125 18.9374 42 20.9999C42.0625 20.9999 42.125 20.9999 42.1875 20.9999C42.9375 20.9999 43.7188 21.0937 44.5312 21.2812C43.4688 18.3437 41.7812 15.8749 39.4688 13.8749C39.5312 12.7499 39.7188 11.6249 40.0312 10.4999L40.125 10.3124C40.3125 9.6249 40.7188 9.21865 41.3438 9.09365C41.9688 8.90615 42.5312 9.03115 43.0312 9.46865L43.2188 9.65615ZM13.3125 45.4687L16.4062 43.4062L21 47.6249L16.6875 50.5312C15.9375 50.9687 15.1875 51.0937 14.4375 50.9062C13.625 50.7812 12.9688 50.3749 12.4688 49.6874C12.0312 48.9374 11.9062 48.1874 12.0938 47.4374C12.2188 46.6249 12.625 45.9687 13.3125 45.4687ZM45 28.4999C45.0625 29.4374 45.5625 29.9374 46.5 29.9999C47.4375 29.9374 47.9375 29.4374 48 28.4999C47.9375 27.5624 47.4375 27.0624 46.5 26.9999C45.5625 27.0624 45.0625 27.5624 45 28.4999Z" fill="#8A8C99"/>
<path d="M9.09375 22.5C7.71875 24.875 7.40625 27.3438 8.15625 29.9062C7.28125 30.4688 6.3125 30.75 5.25 30.75C3.75 30.6875 2.5 30.1875 1.5 29.25C0.5625 28.25 0.0625 27 0 25.5C0.0625 24 0.5625 22.75 1.5 21.75C2.5 20.8125 3.75 20.3125 5.25 20.25C6.9375 20.3125 8.28125 20.9375 9.28125 22.125V22.2188L9.09375 22.5Z" fill="#FCD535"/>
</svg>
