<svg width="48" height="48" viewBox="0 0 48 48" fill="none" xmlns="http://www.w3.org/2000/svg">
<path d="M36 12.75H4.5V19.7109C3.5625 19.5703 2.625 19.5 1.6875 19.5H0V12.75C0.046875 11.4844 0.492188 10.4297 1.33594 9.58594C2.17969 8.74219 3.23438 8.29688 4.5 8.25H36C37.2656 8.29688 38.3203 8.74219 39.1641 9.58594C40.0078 10.4297 40.4531 11.4844 40.5 12.75V35.25C40.4531 36.5156 40.0078 37.5703 39.1641 38.4141C38.3203 39.2578 37.2656 39.7031 36 39.75H20.25V38.0625C20.25 37.125 20.1797 36.1875 20.0391 35.25H36V12.75Z" fill="#8A8C99"/>
<path d="M1.6875 21.75C4.73438 21.7969 7.47656 22.5469 9.91406 24C12.3516 25.4531 14.2969 27.3984 15.75 29.8359C17.2031 32.2734 17.9531 35.0156 18 38.0625C17.9062 39.0938 17.3438 39.6562 16.3125 39.75C15.2812 39.6562 14.7188 39.0938 14.625 38.0625C14.5312 34.4062 13.2656 31.3594 10.8281 28.9219C8.39062 26.4844 5.34375 25.2188 1.6875 25.125C0.65625 25.0312 0.09375 24.4688 0 23.4375C0.09375 22.4062 0.65625 21.8438 1.6875 21.75ZM2.25 35.25C2.90625 35.25 3.44531 35.4609 3.86719 35.8828C4.28906 36.3047 4.5 36.8438 4.5 37.5C4.5 38.1562 4.28906 38.6953 3.86719 39.1172C3.44531 39.5391 2.90625 39.75 2.25 39.75C1.59375 39.75 1.05469 39.5391 0.632812 39.1172C0.210938 38.6953 0 38.1562 0 37.5C0 36.8438 0.210938 36.3047 0.632812 35.8828C1.05469 35.4609 1.59375 35.25 2.25 35.25ZM0 30.1875C0.09375 29.1562 0.65625 28.5938 1.6875 28.5C4.40625 28.5469 6.65625 29.4844 8.4375 31.3125C10.2656 33.0938 11.2031 35.3438 11.25 38.0625C11.1562 39.0938 10.5938 39.6562 9.5625 39.75C8.53125 39.6562 7.96875 39.0938 7.875 38.0625C7.82812 36.3281 7.21875 34.875 6.04688 33.7031C4.875 32.5312 3.42188 31.9219 1.6875 31.875C0.65625 31.7812 0.09375 31.2188 0 30.1875Z" fill="#FCD535"/>
</svg>
