<svg width="60" height="60" viewBox="0 0 60 60" fill="none" xmlns="http://www.w3.org/2000/svg">
<path d="M6 9H42C43.6875 9.0625 45.0938 9.65625 46.2188 10.7812C47.3438 11.9062 47.9375 13.3125 48 15V21C47.9375 22.6875 47.3438 24.0938 46.2188 25.2188C45.0938 26.3438 43.6875 26.9375 42 27H6C4.3125 26.9375 2.90625 26.3438 1.78125 25.2188C0.65625 24.0938 0.0625 22.6875 0 21V15C0.0625 13.3125 0.65625 11.9062 1.78125 10.7812C2.90625 9.65625 4.3125 9.0625 6 9ZM32.25 15.75C30.875 15.875 30.125 16.625 30 18C30.125 19.375 30.875 20.125 32.25 20.25C33.625 20.125 34.375 19.375 34.5 18C34.375 16.625 33.625 15.875 32.25 15.75ZM36.75 18C36.875 19.375 37.625 20.125 39 20.25C40.375 20.125 41.125 19.375 41.25 18C41.125 16.625 40.375 15.875 39 15.75C37.625 15.875 36.875 16.625 36.75 18Z" fill="#8A8C99"/>
<path d="M6 33H42C43.6875 33.0625 45.0938 33.6562 46.2188 34.7812C47.3438 35.9062 47.9375 37.3125 48 39V45C47.9375 46.6875 47.3438 48.0938 46.2188 49.2188C45.0938 50.3438 43.6875 50.9375 42 51H6C4.3125 50.9375 2.90625 50.3438 1.78125 49.2188C0.65625 48.0938 0.0625 46.6875 0 45V39C0.0625 37.3125 0.65625 35.9062 1.78125 34.7812C2.90625 33.6562 4.3125 33.0625 6 33ZM32.25 39.75C30.875 39.875 30.125 40.625 30 42C30.125 43.375 30.875 44.125 32.25 44.25C33.625 44.125 34.375 43.375 34.5 42C34.375 40.625 33.625 39.875 32.25 39.75ZM37.5 42C37.625 43.375 38.375 44.125 39.75 44.25C41.125 44.125 41.875 43.375 42 42C41.875 40.625 41.125 39.875 39.75 39.75C38.375 39.875 37.625 40.625 37.5 42Z" fill="#FCD535"/>
</svg>
