<svg width="48" height="48" viewBox="0 0 48 48" fill="none" xmlns="http://www.w3.org/2000/svg">
<path d="M16.875 33C17.5312 33 18.0703 32.7891 18.4922 32.3672C18.9141 31.9453 19.125 31.4062 19.125 30.75C19.125 30.0938 18.9141 29.5547 18.4922 29.1328C18.0703 28.7109 17.5312 28.5 16.875 28.5C16.2188 28.5 15.6797 28.7109 15.2578 29.1328C14.8359 29.5547 14.625 30.0938 14.625 30.75C14.625 31.4062 14.8359 31.9453 15.2578 32.3672C15.6797 32.7891 16.2188 33 16.875 33ZM22.5 30.75C22.5 31.9219 22.1953 32.9531 21.5859 33.8438C20.9766 34.7812 20.1562 35.4609 19.125 35.8828V39.75C19.125 40.4062 18.9141 40.9453 18.4922 41.3672C18.0703 41.7891 17.5312 42 16.875 42C16.2188 42 15.6797 41.7891 15.2578 41.3672C14.8359 40.9453 14.625 40.4062 14.625 39.75V35.8828C13.5938 35.4609 12.7734 34.7812 12.1641 33.8438C11.5547 32.9531 11.25 31.9219 11.25 30.75C11.25 29.5781 11.5547 28.5469 12.1641 27.6562C12.7734 26.7188 13.5938 26.0391 14.625 25.6172V8.25C14.625 7.59375 14.8359 7.05469 15.2578 6.63281C15.6797 6.21094 16.2188 6 16.875 6C17.5312 6 18.0703 6.21094 18.4922 6.63281C18.9141 7.05469 19.125 7.59375 19.125 8.25V25.6172C20.1562 26.0391 20.9766 26.7188 21.5859 27.6562C22.1953 28.5469 22.5 29.5781 22.5 30.75Z" fill="#FCD535"/>
<path d="M5.625 6C6.28125 6 6.82031 6.21094 7.24219 6.63281C7.66406 7.05469 7.875 7.59375 7.875 8.25V12.1172C8.90625 12.5391 9.72656 13.2188 10.3359 14.1562C10.9453 15.0469 11.25 16.0781 11.25 17.25C11.25 18.4219 10.9453 19.4531 10.3359 20.3438C9.72656 21.2812 8.90625 21.9609 7.875 22.3828V39.75C7.875 40.4062 7.66406 40.9453 7.24219 41.3672C6.82031 41.7891 6.28125 42 5.625 42C4.96875 42 4.42969 41.7891 4.00781 41.3672C3.58594 40.9453 3.375 40.4062 3.375 39.75V22.3828C2.34375 21.9609 1.52344 21.2812 0.914062 20.3438C0.304688 19.4531 0 18.4219 0 17.25C0 16.0781 0.304688 15.0469 0.914062 14.1562C1.52344 13.2188 2.34375 12.5391 3.375 12.1172V8.25C3.375 7.59375 3.58594 7.05469 4.00781 6.63281C4.42969 6.21094 4.96875 6 5.625 6ZM5.625 19.5C6.28125 19.5 6.82031 19.2891 7.24219 18.8672C7.66406 18.4453 7.875 17.9062 7.875 17.25C7.875 16.5938 7.66406 16.0547 7.24219 15.6328C6.82031 15.2109 6.28125 15 5.625 15C4.96875 15 4.42969 15.2109 4.00781 15.6328C3.58594 16.0547 3.375 16.5938 3.375 17.25C3.375 17.9062 3.58594 18.4453 4.00781 18.8672C4.42969 19.2891 4.96875 19.5 5.625 19.5ZM30.375 19.5C30.375 18.8438 30.1641 18.3047 29.7422 17.8828C29.3203 17.4609 28.7812 17.25 28.125 17.25C27.4688 17.25 26.9297 17.4609 26.5078 17.8828C26.0859 18.3047 25.875 18.8438 25.875 19.5C25.875 20.1562 26.0859 20.6953 26.5078 21.1172C26.9297 21.5391 27.4688 21.75 28.125 21.75C28.7812 21.75 29.3203 21.5391 29.7422 21.1172C30.1641 20.6953 30.375 20.1562 30.375 19.5ZM30.375 24.6328V39.75C30.375 40.4062 30.1641 40.9453 29.7422 41.3672C29.3203 41.7891 28.7812 42 28.125 42C27.4688 42 26.9297 41.7891 26.5078 41.3672C26.0859 40.9453 25.875 40.4062 25.875 39.75V24.6328C24.8438 24.2109 24.0234 23.5312 23.4141 22.5938C22.8047 21.7031 22.5 20.6719 22.5 19.5C22.5 18.3281 22.8047 17.2969 23.4141 16.4062C24.0234 15.4688 24.8438 14.7891 25.875 14.3672V8.25C25.875 7.59375 26.0859 7.05469 26.5078 6.63281C26.9297 6.21094 27.4688 6 28.125 6C28.7812 6 29.3203 6.21094 29.7422 6.63281C30.1641 7.05469 30.375 7.59375 30.375 8.25V14.3672C31.4062 14.7891 32.2266 15.4688 32.8359 16.4062C33.4453 17.2969 33.75 18.3281 33.75 19.5C33.75 20.6719 33.4453 21.7031 32.8359 22.5938C32.2266 23.5312 31.4062 24.2109 30.375 24.6328Z" fill="#8A8C99"/>
</svg>
