<svg width="24" height="24" viewBox="0 0 24 24" fill="none" xmlns="http://www.w3.org/2000/svg">
<path d="M4 8C4 8.29167 3.90625 8.53125 3.71875 8.71875C3.53125 8.90625 3.29167 9 3 9C2.70833 9 2.46875 8.90625 2.28125 8.71875C2.09375 8.53125 2 8.29167 2 8V6.5C2.02083 6.08333 2.16667 5.72917 2.4375 5.4375C2.72917 5.16667 3.08333 5.02083 3.5 5H12.5C12.9167 5.02083 13.2708 5.16667 13.5625 5.4375C13.8333 5.72917 13.9792 6.08333 14 6.5V8C14 8.29167 13.9062 8.53125 13.7188 8.71875C13.5312 8.90625 13.2917 9 13 9C12.7083 9 12.4688 8.90625 12.2812 8.71875C12.0938 8.53125 12 8.29167 12 8V7H9V17H10C10.2917 17 10.5312 17.0938 10.7188 17.2812C10.9062 17.4688 11 17.7083 11 18C11 18.2917 10.9062 18.5312 10.7188 18.7188C10.5312 18.9062 10.2917 19 10 19H6C5.70833 19 5.46875 18.9062 5.28125 18.7188C5.09375 18.5312 5 18.2917 5 18C5 17.7083 5.09375 17.4688 5.28125 17.2812C5.46875 17.0938 5.70833 17 6 17H7V7H4V8ZM14 13.5C14 13.7917 13.9062 14.0312 13.7188 14.2188C13.5312 14.4062 13.2917 14.5 13 14.5C12.7083 14.5 12.4688 14.4062 12.2812 14.2188C12.0938 14.0312 12 13.7917 12 13.5V12.5C12.0208 12.0833 12.1667 11.7292 12.4375 11.4375C12.7292 11.1667 13.0833 11.0208 13.5 11H20.5C20.9167 11.0208 21.2708 11.1667 21.5625 11.4375C21.8333 11.7292 21.9792 12.0833 22 12.5V13.5C22 13.7917 21.9062 14.0312 21.7188 14.2188C21.5312 14.4062 21.2917 14.5 21 14.5C20.7083 14.5 20.4688 14.4062 20.2812 14.2188C20.0938 14.0312 20 13.7917 20 13.5V13H18V17H18.5C18.7917 17 19.0312 17.0938 19.2188 17.2812C19.4062 17.4688 19.5 17.7083 19.5 18C19.5 18.2917 19.4062 18.5312 19.2188 18.7188C19.0312 18.9062 18.7917 19 18.5 19H15.5C15.2083 19 14.9688 18.9062 14.7812 18.7188C14.5938 18.5312 14.5 18.2917 14.5 18C14.5 17.7083 14.5938 17.4688 14.7812 17.2812C14.9688 17.0938 15.2083 17 15.5 17H16V13H14V13.5Z" fill="white"/>
</svg>
