<svg width="60" height="34" viewBox="0 0 60 34" fill="none" xmlns="http://www.w3.org/2000/svg">
<path d="M15.2189 17.731L15.5521 17.3581L15.1895 17.0342L14.8556 17.3876L15.2189 17.731ZM21.6342 23.4621L21.3011 23.8349L21.6598 24.1554L21.9939 23.8093L21.6342 23.4621ZM35.2474 9.35783L35.6276 9.03312L35.2701 8.61441L34.8877 9.01059L35.2474 9.35783ZM42.8278 18.2341L42.4475 18.5588L42.8017 18.9736L43.1842 18.5847L42.8278 18.2341ZM59.8036 0.976608L54.2393 2.51674L58.3552 6.56549L59.8036 0.976608ZM1.36336 33.1184L15.5823 18.0745L14.8556 17.3876L0.636603 32.4315L1.36336 33.1184ZM14.8858 18.1039L21.3011 23.8349L21.9673 23.0892L15.5521 17.3581L14.8858 18.1039ZM21.9939 23.8093L35.6072 9.70506L34.8877 9.01059L21.2744 23.1148L21.9939 23.8093ZM34.8672 9.68254L42.4475 18.5588L43.208 17.9094L35.6276 9.03312L34.8672 9.68254ZM43.1842 18.5847L57.0043 4.53529L56.2914 3.83403L42.4713 17.8835L43.1842 18.5847Z" fill="#FCD535"/>
</svg>
