<svg width="52" height="11" viewBox="0 0 52 11" fill="none" xmlns="http://www.w3.org/2000/svg">
<g id="Group 48" clip-path="url(#clip0_420_1736)">
<path id="Vector" d="M13.4243 6.35301V0.251953H15.6153V6.27665C15.6153 7.69226 16.4376 8.66538 18.005 8.66538C19.5724 8.66538 20.3781 7.69129 20.3781 6.27665V0.251953H22.5847V6.33832C22.5847 8.86411 21.0927 10.5832 18.005 10.5832C14.9153 10.5832 13.4243 8.84845 13.4243 6.35301Z" fill="#84858C"/>
<path id="Vector_2" d="M27.791 8.96827L28.9619 7.32552C29.6775 8.07151 30.7877 8.69415 32.1877 8.69415C33.3752 8.69415 33.9528 8.1469 33.9528 7.56831C33.9528 5.77285 28.1102 7.00539 28.1102 3.18636C28.1102 1.49761 29.5708 0.0976562 31.9595 0.0976562C33.5729 0.0976562 34.9112 0.584213 35.9156 1.51327L34.7134 3.09532C33.893 2.33464 32.7966 1.98514 31.7618 1.98514C30.8337 1.98514 30.3168 2.39534 30.3168 3.00427C30.3168 4.61666 36.1437 3.53684 36.1437 7.32552C36.1437 9.18169 34.8202 10.5816 32.0819 10.5816C30.1347 10.5816 28.7348 9.9267 27.791 8.96827Z" fill="#84858C"/>
<path id="Vector_3" d="M41.2124 5.29241C41.2124 2.2086 43.467 0 46.5508 0C49.6493 0 51.9039 2.2086 51.9039 5.29241C51.9039 8.37525 49.6493 10.5838 46.5508 10.5838C43.467 10.5838 41.2124 8.37525 41.2124 5.29241ZM49.664 5.29241C49.664 3.37555 48.4373 1.9335 46.5508 1.9335C44.6643 1.9335 43.4523 3.37555 43.4523 5.29241C43.4523 7.19459 44.6643 8.65132 46.5508 8.65132C48.4373 8.65132 49.664 7.19459 49.664 5.29241Z" fill="#84858C"/>
<path id="Vector_4" d="M5.93463 6.5351C7.03012 6.27665 8.15693 5.31822 8.15693 3.52275C8.15693 1.63624 6.86369 0.251953 4.74809 0.251953H0V2.15315H2.16063H2.32118H4.42894C5.29633 2.15315 5.95029 2.67005 5.95029 3.52275C5.95029 4.37447 5.29535 4.89236 4.42894 4.89236H2.32118H2.16063H0.000978824V10.4001H2.16161V6.79453H3.74463L5.73687 10.4011H8.21763L5.93463 6.5351Z" fill="#84858C"/>
</g>
<defs>
<clipPath id="clip0_420_1736">
<rect width="52" height="11" fill="white"/>
</clipPath>
</defs>
</svg>
