<svg width="18" height="18" viewBox="0 0 18 18" fill="none" xmlns="http://www.w3.org/2000/svg">
<path d="M6.58867 5.79316C6.95327 5.49485 7.34274 5.23797 7.75706 5.02252C7.75706 5.02252 7.76534 5.01424 7.78191 4.99767C7.83163 4.98109 7.88135 4.96452 7.93107 4.94795C8.24595 4.79879 8.49455 4.86508 8.67685 5.14682C8.826 5.4617 8.75971 5.7103 8.47797 5.8926C8.39511 5.94232 8.32053 5.98375 8.25424 6.01689C8.17138 6.06661 8.08851 6.11633 8.00565 6.16605C7.82335 6.24891 7.67419 6.34835 7.55818 6.46436C6.99471 6.89525 6.62182 7.351 6.43952 7.83162C6.29036 8.27908 6.29036 8.59397 6.43952 8.77627C6.63839 9.07458 6.90356 9.17401 7.23501 9.07458C7.64933 8.95857 8.17138 8.71826 8.80114 8.35366L8.77628 8.3288C8.84257 8.29566 8.91715 8.25422 9.00002 8.2045C9.56349 7.90619 10.127 7.69075 10.6904 7.55817C11.5191 7.42558 12.182 7.69075 12.6792 8.35366C13.0935 9.03315 13.1432 9.71263 12.8283 10.3921C12.6792 10.7401 12.4637 11.0716 12.182 11.3865L12.7786 11.9831C13.0106 12.2483 13.0106 12.5134 12.7786 12.7786C12.5135 13.0106 12.2483 13.0106 11.9831 12.7786L11.3368 12.1323C11.055 12.3146 10.7236 12.5134 10.3424 12.7289C10.2761 12.762 10.2098 12.7952 10.1435 12.8283C9.97781 12.9278 9.8038 13.0189 9.6215 13.1018C9.33976 13.2178 9.09117 13.1183 8.87572 12.8035C8.77628 12.5052 8.86743 12.2648 9.14917 12.0825C9.26518 11.9997 9.40605 11.9251 9.57178 11.8588C9.63807 11.8257 9.71265 11.7842 9.79551 11.7345C10.1933 11.5356 10.4916 11.3699 10.6904 11.2373C11.2539 10.8064 11.6185 10.3755 11.7842 9.94465C11.9334 9.56348 11.9168 9.24859 11.7345 9C11.5357 8.70169 11.2539 8.58568 10.8893 8.65197C10.4087 8.76798 9.94467 8.96685 9.4972 9.24859C9.48063 9.26517 9.47234 9.27345 9.47234 9.27345C9.38948 9.32317 9.30661 9.35632 9.22375 9.37289C8.69342 9.73749 8.11337 10.0027 7.4836 10.1684C7.15215 10.2678 6.79583 10.2595 6.41466 10.1435C6.06663 10.0275 5.76832 9.7955 5.51973 9.44747C5.13855 8.80113 5.10541 8.12164 5.42029 7.40901C5.51973 7.14384 5.65231 6.89525 5.81804 6.66323L5.19656 6.04175C4.98111 5.76001 4.98111 5.49485 5.19656 5.24626C5.47829 4.99767 5.75174 4.98938 6.01691 5.2214L6.58867 5.79316ZM15.364 2.63604C16.5406 3.84585 17.3196 5.20483 17.7007 6.71295C18.0985 8.23765 18.0985 9.76235 17.7007 11.287C17.3196 12.7952 16.5406 14.1541 15.364 15.364C14.1542 16.5406 12.7952 17.3196 11.2871 17.7007C9.76237 18.0985 8.23767 18.0985 6.71297 17.7007C5.20484 17.3196 3.84587 16.5406 2.63606 15.364C1.45939 14.1541 0.680463 12.7952 0.299289 11.287C-0.0984588 9.76235 -0.0984588 8.23765 0.299289 6.71295C0.680463 5.20483 1.45939 3.84585 2.63606 2.63604C3.84587 1.45937 5.20484 0.680447 6.71297 0.299272C8.23767 -0.0984754 9.76237 -0.0984754 11.2871 0.299272C12.7952 0.680447 14.1542 1.45937 15.364 2.63604ZM3.43155 3.43153C2.40404 4.49219 1.72455 5.68544 1.39309 7.01126C1.02849 8.33709 1.02849 9.66291 1.39309 10.9887C1.72455 12.3146 2.40404 13.5078 3.43155 14.5685C4.49221 15.596 5.68545 16.2755 7.01128 16.6069C8.3371 16.9715 9.66293 16.9715 10.9888 16.6069C12.3146 16.2755 13.5078 15.596 14.5685 14.5685C15.596 13.5078 16.2755 12.3146 16.6069 10.9887C16.9715 9.66291 16.9715 8.33709 16.6069 7.01126C16.2755 5.68544 15.596 4.49219 14.5685 3.43153C13.5078 2.40402 12.3146 1.72453 10.9888 1.39308C9.66293 1.02848 8.3371 1.02848 7.01128 1.39308C5.68545 1.72453 4.49221 2.40402 3.43155 3.43153Z" fill="#FCD535"/>
</svg>
