<?xml version="1.0" standalone="no"?>
<!DOCTYPE svg PUBLIC "-//W3C//DTD SVG 20010904//EN"
 "http://www.w3.org/TR/2001/REC-SVG-20010904/DTD/svg10.dtd">
<svg version="1.0" xmlns="http://www.w3.org/2000/svg"
 width="1024.000000pt" height="1024.000000pt" viewBox="0 0 1024.000000 1024.000000"
 preserveAspectRatio="xMidYMid meet">
<metadata>
Created by potrace 1.14, written by Peter Selinger 2001-2017
</metadata>
<g transform="translate(0.000000,1024.000000) scale(0.100000,-0.100000)"
fill="#000000" stroke="none">
<path d="M1060 5120 l0 -2480 573 2 572 3 3 903 2 902 1145 0 1145 0 0 460 0
460 -1145 0 -1145 0 0 655 0 655 1300 0 1300 0 0 460 0 460 -1875 0 -1875 0 0
-2480z"/>
<path d="M5160 7375 l0 -225 870 0 870 0 0 -2255 0 -2255 263 2 262 3 3 2253
2 2252 870 0 870 0 0 225 0 225 -2005 0 -2005 0 0 -225z"/>
</g>
</svg>
