<svg width="24" height="24" viewBox="0 0 24 24" fill="none" xmlns="http://www.w3.org/2000/svg">
<path d="M12.7743 16.662C13.1803 16.662 13.3463 16.3913 13.3416 16.052C13.3209 14.774 13.8176 14.0861 14.7142 14.9827C15.7062 15.9746 15.9115 16.662 17.1161 16.662H19.2494C19.788 16.662 20 16.4886 20 16.2166C20 15.6413 19.0527 14.626 18.2501 13.8807C17.1261 12.8374 17.0735 12.8128 18.0414 11.5568C19.242 9.99756 20.8126 7.99965 19.4234 7.99965H16.7695C16.2548 7.99965 16.2175 8.28963 16.0342 8.72162C15.3709 10.2862 14.1102 12.3128 13.6316 12.0028C13.131 11.6795 13.3603 10.3989 13.3983 8.49563C13.4083 7.99298 13.4056 7.64833 12.6376 7.46967C12.2183 7.37301 11.8103 7.33301 11.4317 7.33301C9.91642 7.33301 8.87113 7.96831 9.46511 8.07898C10.5124 8.2743 10.4117 10.5402 10.1677 11.5188C9.74243 13.2228 8.14383 10.1696 7.47786 8.64895C7.3172 8.28363 7.26786 7.99965 6.69455 7.99965H4.52464C4.19666 7.99965 4 8.10631 4 8.34363C4 8.74495 5.97325 12.8234 7.85717 14.8567C9.69443 16.8399 11.5104 16.662 12.7743 16.662Z" fill="#84858C"/>
</svg>
