<svg width="48" height="48" viewBox="0 0 48 48" fill="none" xmlns="http://www.w3.org/2000/svg">
<rect y="15.5" width="40.5" height="7" fill="#FCD535"/>
<path d="M4.5 8.75H36C37.2656 8.79688 38.3203 9.24219 39.1641 10.0859C40.0078 10.9297 40.4531 11.9844 40.5 13.25V15.5H0V13.25C0.046875 11.9844 0.492188 10.9297 1.33594 10.0859C2.17969 9.24219 3.23438 8.79688 4.5 8.75ZM40.5 22.25V35.75C40.4531 37.0156 40.0078 38.0703 39.1641 38.9141C38.3203 39.7578 37.2656 40.2031 36 40.25H4.5C3.23438 40.2031 2.17969 39.7578 1.33594 38.9141C0.492188 38.0703 0.046875 37.0156 0 35.75V22.25H40.5ZM7.875 31.25C7.17188 31.2969 6.79688 31.6719 6.75 32.375C6.79688 33.0781 7.17188 33.4531 7.875 33.5H12.375C13.0781 33.4531 13.4531 33.0781 13.5 32.375C13.4531 31.6719 13.0781 31.2969 12.375 31.25H7.875ZM15.75 32.375C15.7969 33.0781 16.1719 33.4531 16.875 33.5H25.875C26.5781 33.4531 26.9531 33.0781 27 32.375C26.9531 31.6719 26.5781 31.2969 25.875 31.25H16.875C16.1719 31.2969 15.7969 31.6719 15.75 32.375Z" fill="#8A8C99"/>
</svg>
