<svg width="25" height="24" viewBox="0 0 25 24" fill="none" xmlns="http://www.w3.org/2000/svg">
<path d="M6.5 6C6.52083 5.4375 6.71875 4.96875 7.09375 4.59375C7.46875 4.21875 7.9375 4.02083 8.5 4H13.5V8C13.5 8.29167 13.5938 8.53125 13.7812 8.71875C13.9688 8.90625 14.2083 9 14.5 9H18.5V18C18.4792 18.5625 18.2812 19.0312 17.9062 19.4062C17.5312 19.7812 17.0625 19.9792 16.5 20H8.5C7.9375 19.9792 7.46875 19.7812 7.09375 19.4062C6.71875 19.0312 6.52083 18.5625 6.5 18V6ZM18.5 8H14.5V4L18.5 8Z" fill="white"/>
</svg>
