<svg width="24" height="24" viewBox="0 0 24 24" fill="none" xmlns="http://www.w3.org/2000/svg">
<path d="M13.7812 5.03236C14.1979 5.11569 14.5208 5.32402 14.75 5.65736C14.9792 5.99069 15.0521 6.36569 14.9688 6.78236L14.9062 7.15736C14.7396 7.99069 14.4375 8.77194 14 9.50111H18.5C18.9167 9.52194 19.2708 9.66777 19.5625 9.93861C19.8333 10.2303 19.9792 10.5844 20 11.0011C19.9792 11.6053 19.7083 12.0532 19.1875 12.3449C19.5417 12.6365 19.7292 13.0219 19.75 13.5011C19.75 13.8761 19.6354 14.199 19.4062 14.4699C19.1771 14.7407 18.8854 14.9074 18.5312 14.9699C18.6771 15.199 18.75 15.4594 18.75 15.7511C18.7083 16.4594 18.3646 16.9386 17.7188 17.1886C17.7396 17.2928 17.75 17.3969 17.75 17.5011C17.7292 17.9178 17.5833 18.2719 17.3125 18.5636C17.0208 18.8344 16.6667 18.9803 16.25 19.0011H13.2188C12.5938 19.0011 12.0312 18.8344 11.5312 18.5011L10.3438 17.6886C9.46875 17.0844 9.02083 16.2511 9 15.1886V11.7199C9.02083 10.7615 9.39583 9.98027 10.125 9.37611L10.3438 9.18861C11.1979 8.50111 11.7396 7.62611 11.9688 6.56361L12.0312 6.21986C12.1146 5.80319 12.3229 5.48027 12.6562 5.25111C12.9896 5.02194 13.3646 4.94902 13.7812 5.03236ZM5 10.0011H7C7.29167 10.0011 7.53125 10.0949 7.71875 10.2824C7.90625 10.4699 8 10.7094 8 11.0011V18.0011C8 18.2928 7.90625 18.5324 7.71875 18.7199C7.53125 18.9074 7.29167 19.0011 7 19.0011H5C4.70833 19.0011 4.46875 18.9074 4.28125 18.7199C4.09375 18.5324 4 18.2928 4 18.0011V11.0011C4 10.7094 4.09375 10.4699 4.28125 10.2824C4.46875 10.0949 4.70833 10.0011 5 10.0011Z" fill="white"/>
</svg>
