<svg width="24" height="24" viewBox="0 0 24 24" fill="none" xmlns="http://www.w3.org/2000/svg">
<path d="M12 4C12.8542 4.02083 13.5625 4.3125 14.125 4.875C14.6875 5.4375 14.9792 6.14583 15 7V12C14.9792 12.8542 14.6875 13.5625 14.125 14.125C13.5625 14.6875 12.8542 14.9792 12 15C11.1458 14.9792 10.4375 14.6875 9.875 14.125C9.3125 13.5625 9.02083 12.8542 9 12V7C9.02083 6.14583 9.3125 5.4375 9.875 4.875C10.4375 4.3125 11.1458 4.02083 12 4ZM8 10.75V12C8.02083 13.125 8.40625 14.0729 9.15625 14.8438C9.92708 15.5938 10.875 15.9792 12 16C13.125 15.9792 14.0729 15.5938 14.8438 14.8438C15.5938 14.0729 15.9792 13.125 16 12V10.75C16.0417 10.2917 16.2917 10.0417 16.75 10C17.2083 10.0417 17.4583 10.2917 17.5 10.75V12C17.4792 13.4167 17.0208 14.625 16.125 15.625C15.25 16.625 14.125 17.2292 12.75 17.4375V18.5H14.25C14.7083 18.5417 14.9583 18.7917 15 19.25C14.9583 19.7083 14.7083 19.9583 14.25 20H9.75C9.29167 19.9583 9.04167 19.7083 9 19.25C9.04167 18.7917 9.29167 18.5417 9.75 18.5H11.25V17.4375C9.875 17.2292 8.75 16.625 7.875 15.625C6.97917 14.625 6.52083 13.4167 6.5 12V10.75C6.54167 10.2917 6.79167 10.0417 7.25 10C7.70833 10.0417 7.95833 10.2917 8 10.75Z" fill="white"/>
</svg>
