<svg width="48" height="48" viewBox="0 0 48 48" fill="none" xmlns="http://www.w3.org/2000/svg">
<path d="M0 10.5C0.046875 9.23438 0.492188 8.17969 1.33594 7.33594C2.17969 6.49219 3.23438 6.04688 4.5 6H20.25C21.5156 6.04688 22.5703 6.49219 23.4141 7.33594C24.2578 8.17969 24.7031 9.23438 24.75 10.5V37.5C24.7031 38.7656 24.2578 39.8203 23.4141 40.6641C22.5703 41.5078 21.5156 41.9531 20.25 42H4.5C3.23438 41.9531 2.17969 41.5078 1.33594 40.6641C0.492188 39.8203 0.046875 38.7656 0 37.5V10.5ZM14.625 37.5C14.625 36.8438 14.4141 36.3047 13.9922 35.8828C13.5703 35.4609 13.0312 35.25 12.375 35.25C11.7188 35.25 11.1797 35.4609 10.7578 35.8828C10.3359 36.3047 10.125 36.8438 10.125 37.5C10.125 38.1562 10.3359 38.6953 10.7578 39.1172C11.1797 39.5391 11.7188 39.75 12.375 39.75C13.0312 39.75 13.5703 39.5391 13.9922 39.1172C14.4141 38.6953 14.625 38.1562 14.625 37.5ZM20.25 10.5H4.5V33H20.25V10.5Z" fill="#8A8C99"/>
<path d="M20.25 10.5H4.5V33H20.25V10.5Z" fill="#FCD535"/>
</svg>
