<svg width="48" height="49" viewBox="0 0 48 49" fill="none" xmlns="http://www.w3.org/2000/svg">
<path d="M20.25 36.25H40.5C41.1562 36.25 41.6953 36.4609 42.1172 36.8828C42.5391 37.3047 42.75 37.8438 42.75 38.5C42.75 39.1562 42.5391 39.6953 42.1172 40.1172C41.6953 40.5391 41.1562 40.75 40.5 40.75H20.25C19.5938 40.75 19.0547 40.5391 18.6328 40.1172C18.2109 39.6953 18 39.1562 18 38.5C18 37.8438 18.2109 37.3047 18.6328 36.8828C19.0547 36.4609 19.5938 36.25 20.25 36.25Z" fill="#FCD535"/>
<path d="M2.88281 13.1172C2.46094 12.6484 2.25 12.1094 2.25 11.5C2.25 10.8906 2.46094 10.3516 2.88281 9.88281C3.35156 9.46094 3.89062 9.25 4.5 9.25C5.10938 9.25 5.64844 9.46094 6.11719 9.88281L19.6172 23.3828C20.0391 23.8516 20.25 24.3906 20.25 25C20.25 25.6094 20.0391 26.1484 19.6172 26.6172L6.11719 40.1172C5.64844 40.5391 5.10938 40.75 4.5 40.75C3.89062 40.75 3.35156 40.5391 2.88281 40.1172C2.46094 39.6484 2.25 39.1094 2.25 38.5C2.25 37.8906 2.46094 37.3516 2.88281 36.8828L14.8359 25L2.88281 13.1172Z" fill="#8A8C99"/>
</svg>
