<svg width="12" height="13" viewBox="0 0 12 13" fill="none" xmlns="http://www.w3.org/2000/svg">
<path id="Vector" d="M11.3033 2.82849L7.63178 6.5L11.3033 10.1715C11.5413 10.4095 11.6603 10.6815 11.6603 10.9874C11.6603 11.2934 11.5413 11.5653 11.3033 11.8033C11.0653 12.0413 10.7934 12.1603 10.4874 12.1603C10.1814 12.1603 9.90948 12.0413 9.67152 11.8033L6 8.13179L2.32848 11.8033C2.09052 12.0413 1.81855 12.1603 1.51259 12.1603C1.20663 12.1603 0.934668 12.0413 0.696699 11.8033C0.458731 11.5653 0.339746 11.2934 0.339746 10.9874C0.339746 10.6815 0.45873 10.4095 0.696699 10.1715L4.36822 6.5L0.696699 2.82849C0.458731 2.59052 0.339746 2.31856 0.339747 2.0126C0.339746 1.70664 0.458731 1.43467 0.696699 1.1967C0.934668 0.958734 1.20663 0.83975 1.51259 0.83975C1.81855 0.83975 2.09052 0.958734 2.32848 1.1967L6 4.86822L9.67152 1.1967C9.90948 0.958734 10.1814 0.83975 10.4874 0.83975C10.7934 0.83975 11.0653 0.958734 11.3033 1.1967C11.5413 1.43467 11.6603 1.70664 11.6603 2.0126C11.6603 2.31856 11.5413 2.59052 11.3033 2.82849Z" fill="#84858C"/>
</svg>
