<svg width="130" height="34" viewBox="0 0 130 34" fill="none" xmlns="http://www.w3.org/2000/svg">
<g id="logo" clip-path="url(#clip0_453_1406)">
<g id="&#208;&#161;&#208;&#187;&#208;&#190;&#208;&#185; 1">
<g id="Group">
<path id="Vector" d="M129.325 32.2181H0V34H129.325V32.2181Z" fill="#FCD535"/>
<g id="Group_2">
<path id="Vector_2" d="M58.4805 10.3137H50.8498V8.32847H68.4065V10.3137H60.7758V30.0413H58.4805V10.3137ZM86.5444 28.0567V30.0419H71.1898V8.32847H86.079V10.3137H73.4856V18.0376H84.7146V19.9917H73.4856V28.0567H86.545H86.5444ZM88.2208 19.1852C88.2208 12.8264 93.0598 8.14206 99.6044 8.14206C102.768 8.14206 105.622 9.19647 107.545 11.3059L106.088 12.7636C104.32 10.9642 102.148 10.1887 99.6666 10.1887C94.4243 10.1887 90.485 14.0348 90.485 19.1846C90.485 24.3343 94.4243 28.1804 99.6666 28.1804C102.148 28.1804 104.32 27.4049 106.088 25.5744L107.545 27.0321C105.622 29.1416 102.768 30.227 99.5734 30.227C93.0592 30.227 88.2208 25.5434 88.2208 19.1846V19.1852ZM129.326 8.32847V30.0413H127.061V20.0221H113.475V30.0413H111.18V8.32847H113.475V18.0065H127.061V8.32847H129.326Z" fill="white"/>
<path id="Vector_3" d="M5.02479 12.3603V18.0991H15.075V22.1316H5.02479V30.0413H0V8.32847H16.409V12.361H5.02479V12.3603ZM19.3354 8.32782H24.3601V30.0413H19.3354V8.32847V8.32782ZM48.8407 8.32782V30.0413H44.7156L33.89 16.8582V30.0413H28.9267V8.32847H33.0835L43.878 21.5115V8.32847H48.8413L48.8407 8.32782Z" fill="white"/>
</g>
<g id="Group_3">
<path id="Vector_4" d="M18.9366 2.73344C18.9366 1.16704 20.1347 1.90735e-06 21.762 1.90735e-06C23.3892 1.90735e-06 24.5802 1.15927 24.5802 2.73344C24.5802 4.30761 23.375 5.46688 21.762 5.46688C20.149 5.46688 18.9366 4.29984 18.9366 2.73344Z" fill="#FCD535"/>
<path id="Vector_5" d="M0 0.0458522H0.568306V5.42017H0V0.0458522ZM8.3466 0.0458522V5.42017H7.87797L4.42347 1.05948V5.42017H3.85516V0.0458522H4.32379L7.7867 4.40654V0.0458522H8.34724H8.3466ZM16.1255 0.0458522V5.42017H15.6569L12.2018 1.05948V5.42017H11.6335V0.0458522H12.1021L15.565 4.40654V0.0458522H16.1255ZM31.6989 0.0458522L29.3189 5.42017H28.7584L26.3777 0.0458522H26.992L29.0496 4.71399L31.1229 0.0458522H31.6989ZM37.2202 3.98451H34.2259L33.5806 5.42017H32.9896L35.4467 0.0458522H36.0072L38.4642 5.42017H37.8655L37.2208 3.98451H37.2202ZM37.0131 3.52365L35.723 0.636813L34.433 3.52365H37.0131ZM41.667 0.537133H39.7782V0.0458522H44.124V0.537133H42.2353V5.42017H41.667V0.537133ZM46.5662 0.0458522H47.1345V5.42017H46.5662V0.0458522ZM49.9449 2.73269C49.9449 1.16628 51.143 -0.000751495 52.7703 -0.000751495C54.3975 -0.000751495 55.5885 1.15852 55.5885 2.73269C55.5885 4.30686 54.3833 5.46612 52.7703 5.46612C51.1573 5.46612 49.9449 4.29909 49.9449 2.73269ZM55.0202 2.73269C55.0202 1.45044 54.0603 0.506064 52.7703 0.506064C51.4803 0.506064 50.5055 1.45044 50.5055 2.73269C50.5055 4.01494 51.4732 4.95931 52.7703 4.95931C54.0674 4.95931 55.0202 4.01494 55.0202 2.73269ZM62.8917 0.0458522V5.42017H62.4231L58.9679 1.05884V5.42017H58.3996V0.0458522H58.8683L62.3312 4.40654V0.0458522H62.8917ZM65.6646 4.76771L65.8873 4.33016C66.2711 4.70622 66.9546 4.98261 67.6608 4.98261C68.6667 4.98261 69.1042 4.56059 69.1042 4.03047C69.1042 2.55663 65.7954 3.46216 65.7954 1.47374C65.7954 0.68277 66.4096 -0.000104222 67.776 -0.000104222C68.3825 -0.000104222 69.0123 0.176602 69.4421 0.475642L69.2499 0.928734C68.789 0.629693 68.2518 0.483409 67.776 0.483409C66.7935 0.483409 66.3559 0.920966 66.3559 1.4582C66.3559 2.93205 69.6648 2.04204 69.6648 3.9994C69.6648 4.79037 69.035 5.46612 67.6608 5.46612C66.8543 5.46612 66.064 5.18197 65.6646 4.76771Z" fill="white"/>
</g>
</g>
</g>
</g>
<defs>
<clipPath id="clip0_453_1406">
<rect width="129.325" height="34" fill="white"/>
</clipPath>
</defs>
</svg>
